<svg 
 xmlns="http://www.w3.org/2000/svg"
 xmlns:xlink="http://www.w3.org/1999/xlink"
 width="92px" height="92px">
<path fill-rule="evenodd"  fill="rgb(255, 212, 29)"
 d="M45.993,-0.010 C20.590,-0.010 -0.003,20.583 -0.003,45.985 C-0.003,71.389 20.590,91.983 45.993,91.983 C71.396,91.983 91.990,71.389 91.990,45.985 C91.990,20.583 71.396,-0.010 45.993,-0.010 ZM66.954,58.552 L65.415,58.552 C57.593,49.606 43.131,48.768 43.131,48.768 C43.131,48.768 43.131,49.582 42.313,49.582 C42.180,49.582 41.733,49.582 41.086,49.582 L40.676,50.402 L39.452,50.810 L39.452,52.037 L40.057,53.385 L40.134,53.355 C40.548,53.175 41.030,53.362 41.210,53.775 L41.869,55.275 C42.047,55.688 41.861,56.169 41.446,56.350 L41.401,56.369 L43.132,60.214 L44.358,60.760 L44.358,61.167 L39.859,64.440 L39.452,64.029 L39.452,62.668 C39.452,62.668 36.179,56.125 35.403,54.541 C34.623,52.957 32.910,53.264 32.910,53.264 L31.275,49.582 C29.761,49.582 28.641,49.582 28.411,49.582 C27.594,49.582 27.827,48.494 27.827,48.494 C27.827,48.494 26.154,47.650 25.032,46.674 C23.915,45.699 23.915,43.044 23.915,43.044 C23.915,43.044 23.915,40.387 25.032,39.410 C26.153,38.433 27.827,37.594 27.827,37.594 C27.827,37.594 27.594,36.501 28.411,36.501 C29.230,36.501 41.495,36.501 42.315,36.501 C43.132,36.501 43.132,37.317 43.132,37.317 C43.132,37.317 57.594,36.478 65.416,27.531 L66.956,27.531 C66.956,27.531 68.073,27.394 68.071,43.043 C68.071,58.690 66.954,58.552 66.954,58.552 Z"/>
</svg>